/* XPM */
static char *bitcoin16[] = {
/* columns rows colors chars-per-pixel */
"16 16 232 2 ",
"   c black",
".  c #040200",
"X  c #040300",
"o  c #000007",
"O  c #000009",
"+  c #000209",
"@  c #000309",
"#  c #00000B",
"$  c #00000D",
"%  c #00000F",
"&  c #040909",
"*  c #040B0B",
"=  c #000C0D",
"-  c #010D0E",
";  c #000310",
":  c #000F11",
">  c #00061A",
",  c #000A1C",
"<  c #000E1C",
"1  c #011011",
"2  c #001013",
"3  c #001113",
"4  c #021112",
"5  c #021213",
"6  c #011315",
"7  c #021314",
"8  c #021315",
"9  c #001316",
"0  c #011415",
"q  c #021515",
"w  c #001416",
"e  c #021516",
"r  c #021616",
"t  c #021717",
"y  c #00101D",
"u  c #00111D",
"i  c #00131D",
"p  c #00111E",
"a  c #00121E",
"s  c #00121F",
"d  c #021A1B",
"f  c #001723",
"g  c #001820",
"h  c #001823",
"j  c #001924",
"k  c #001A25",
"l  c #001B25",
"z  c #001B26",
"x  c #001F24",
"c  c #001C26",
"v  c #001E29",
"b  c #002226",
"n  c #002227",
"m  c #00252A",
"M  c #032C30",
"N  c #032E30",
"B  c #032F33",
"V  c #002439",
"C  c #002B3D",
"Z  c #033235",
"A  c #063638",
"S  c #00323E",
"D  c #063F3F",
"F  c #203F26",
"G  c #174433",
"H  c #194533",
"J  c #1E4A35",
"K  c #204128",
"L  c #214329",
"P  c #22472A",
"I  c #23472A",
"U  c #244729",
"Y  c #234A2B",
"T  c #224A2D",
"R  c #234B2D",
"E  c #204A2E",
"W  c #214B2F",
"Q  c #204C2F",
"!  c #244D2D",
"~  c #204B30",
"^  c #204D32",
"/  c #255639",
"(  c #507027",
")  c #537227",
"_  c #53772A",
"`  c #50782C",
"'  c #52792F",
"]  c #003743",
"[  c #003744",
"{  c #003844",
"}  c #003945",
"|  c #003A46",
" . c #003B46",
".. c #003C47",
"X. c #003D48",
"o. c #003E48",
"O. c #003E49",
"+. c #003F4B",
"@. c #003A4F",
"#. c #01404D",
"$. c #00434E",
"%. c #004054",
"&. c #004851",
"*. c #004C53",
"=. c #004B54",
"-. c #004A55",
";. c #004B56",
":. c #004C54",
">. c #004E55",
",. c #004F56",
"<. c #004D5E",
"1. c #005157",
"2. c #005358",
"3. c #005359",
"4. c #00545A",
"5. c #00565C",
"6. c #00575D",
"7. c #005A5F",
"8. c #125C5B",
"9. c #3D7E4C",
"0. c #2E7657",
"q. c #005064",
"w. c #01696E",
"e. c #026271",
"r. c #006473",
"t. c #006577",
"y. c #006975",
"u. c #006D7B",
"i. c #006F7D",
"p. c #02757F",
"a. c #538538",
"s. c #53863C",
"d. c #598D3D",
"f. c #6EA13B",
"g. c #79AF3D",
"h. c #128178",
"j. c #2D8F6A",
"k. c #45874C",
"l. c #539145",
"z. c #5C9843",
"x. c #A7D232",
"c. c #ADDB38",
"v. c #ACDD3A",
"b. c #B2DB30",
"n. c #FDFB00",
"m. c #FFFC00",
"M. c #FDFF07",
"N. c #FBFE08",
"B. c #FFFF0E",
"V. c #FEFF0F",
"C. c #FFFF0F",
"Z. c #F7FF13",
"A. c #F7FF15",
"S. c #F9FF11",
"D. c #FBFF11",
"F. c #F9FF12",
"G. c #FCFF10",
"H. c #FFFF11",
"J. c #FCFF12",
"K. c #FFFF13",
"L. c #FFFF14",
"P. c #FFFF16",
"I. c #FBFF1B",
"U. c #FDFF18",
"Y. c #FFFF19",
"T. c #C2E529",
"R. c #C4E728",
"E. c #C8E82A",
"W. c #CAEB2C",
"Q. c #96D852",
"!. c #92F469",
"~. c #007282",
"^. c #007485",
"/. c #007190",
"(. c #007B9A",
"). c #007B9B",
"_. c #0078AA",
"`. c #008C93",
"'. c #0181A1",
"]. c #0082A3",
"[. c #0085A3",
"{. c #0085A5",
"}. c #0085A6",
"|. c #0088A7",
" X c #008EA7",
".X c #008AAA",
"XX c #008AAD",
"oX c #008DAC",
"OX c #008FAD",
"+X c #0092AF",
"@X c #0094AE",
"#X c #0095AF",
"$X c #0094B0",
"%X c #0095B0",
"&X c #0096B2",
"*X c #0097B3",
"=X c #009EB3",
"-X c #0099B4",
";X c #009AB4",
":X c #009BB4",
">X c #009AB6",
",X c #009DB8",
"<X c #009FB9",
"1X c #00A0B8",
"2X c #00A4BB",
"3X c #00A3BC",
"4X c #00A5BC",
"5X c #00A6BE",
"6X c #00A8BD",
"7X c #00ABC1",
"8X c #00B4C9",
"9X c #00B6CB",
"0X c #00B8CB",
"qX c #00BACE",
"wX c #00BFD2",
"eX c #00B7DA",
"rX c #00C2D2",
"tX c #00C0D7",
"yX c #00C4D6",
"uX c #00C8D9",
"iX c #00CCDC",
"pX c #00CDDD",
"aX c #00D5DE",
"sX c #00D1E0",
"dX c #00D5E2",
"fX c #00D5E4",
"gX c #00D9E7",
"hX c #00DBE6",
"jX c #00DCE9",
"kX c #00DEE8",
"lX c #00E0EB",
"zX c #00E3ED",
/* pixels */
"=X2X5X1X:X<X,X@X#XXX_.}.[.'.)./.",
"7Xi.;.^.r.o.$.e.@.0.Q.8.%.#.q.(.",
"9X&.2 b 1 B = X > ' C.F < 4 S ].",
"qX=.w m   @ M A # ( L.K p 8 ] {.",
"wX*.0 g G 9.$ * V s.B.K y 5 [ |.",
"yX>.q f Y I.x.J o ) K.K y 5 { .X",
"uX,.e h T F.m.D.f.d.C.L u 5 } oX",
"iX1.r j R J.v.R.M.E.Z.U p 7 | OX",
"sX3.r j ! A.W.N.T.c.G.I p 7  .+X",
"fX4.t k W H.z.g.V.n.S.P a 7 ..$X",
"gX5.t l E P._ O / b.U.I s 7 X.&X",
"jX6.t z ~ H.l.C & ; k.H i 6 X.*X",
"lX7.d v ^ Y.` % D N +   n 9 +.-X",
"zX2.t c Q L.a., . : Z - x 3 O.>X",
"kX`.w.y.h.!.j.<.p.:.&.u.~.-.t.%X",
"aXhXhXdXpXeXtXrX0XqX8X6X4X3X;X X"
};
