/* XPM */
static char *bitcoin64[] = {
/* columns rows colors chars-per-pixel */
"64 64 174 2 ",
"   c #000101",
".  c #000709",
"X  c #020B0B",
"o  c #04100F",
"O  c #000F11",
"+  c #011214",
"@  c #01171A",
"#  c #011A1C",
"$  c #001325",
"%  c #011D22",
"&  c #001A2B",
"*  c #001E32",
"=  c #012226",
"-  c #01252A",
";  c #00282D",
":  c #022C31",
">  c #012F38",
",  c #002035",
"<  c #003137",
"1  c #01353C",
"2  c #013B44",
"3  c #044144",
"4  c #00444C",
"5  c #014352",
"6  c #024B54",
"7  c #004D5D",
"8  c #00425C",
"9  c #01515C",
"0  c #004660",
"q  c #005463",
"w  c #005966",
"e  c #00566A",
"r  c #015C6C",
"t  c #004F73",
"y  c #005276",
"u  c #005C72",
"i  c #00567A",
"p  c #005B7D",
"a  c #00626D",
"s  c #006473",
"d  c #006B75",
"f  c #00667B",
"g  c #006C7C",
"h  c #00737B",
"j  c #4CAA75",
"k  c #42A97E",
"l  c #51AA70",
"z  c #6ABF6D",
"x  c #5DC57B",
"c  c #5DCA7E",
"v  c #69C26E",
"b  c #7ACF66",
"n  c #7CD166",
"m  c #69C571",
"M  c #69CB76",
"N  c #69CE78",
"B  c #6CD176",
"V  c #6AD57D",
"C  c #69D87F",
"Z  c #B1DF38",
"A  c #AFE13E",
"S  c #B9E435",
"D  c #EBF40E",
"F  c #F6FA06",
"G  c #FEFF01",
"H  c #F5FC09",
"J  c #F1F709",
"K  c #E3F315",
"L  c #E1F419",
"P  c #E8F612",
"I  c #CDEB26",
"U  c #C4E92D",
"Y  c #CBEC29",
"T  c #D1ED23",
"R  c #81CF5F",
"E  c #86D45D",
"W  c #94DB55",
"Q  c #A3DE45",
"!  c #A8E346",
"~  c #85D962",
"^  c #005F80",
"/  c #006484",
"(  c #006B83",
")  c #006D8B",
"_  c #007284",
"`  c #017C87",
"'  c #00758A",
"]  c #007B8B",
"[  c #006F91",
"{  c #007593",
"}  c #007A95",
"|  c #007D9A",
" . c #007598",
".. c #007DA2",
"X. c #007EAA",
"o. c #01808E",
"O. c #008494",
"+. c #028995",
"@. c #00829E",
"#. c #008B9B",
"$. c #00939D",
"%. c #149299",
"&. c #209591",
"*. c #3FB38A",
"=. c #27AE9E",
"-. c #39B995",
";. c #0085A1",
":. c #008BA5",
">. c #0081AB",
",. c #008EA9",
"<. c #0094A3",
"1. c #009AA5",
"2. c #0093AC",
"3. c #009BAC",
"4. c #0089B0",
"5. c #0095B1",
"6. c #009CB2",
"7. c #0092B9",
"8. c #009EB9",
"9. c #00A3AE",
"0. c #00A1B5",
"q. c #00A5BA",
"w. c #00ABBD",
"e. c #07ACB7",
"r. c #13ACB6",
"t. c #15B7B9",
"y. c #21AEA5",
"u. c #26B2A2",
"i. c #2CBEA9",
"p. c #27B7A7",
"a. c #20BBB1",
"s. c #42AD82",
"d. c #42B285",
"f. c #44B788",
"g. c #44BD8A",
"h. c #4CBB83",
"j. c #51BF82",
"k. c #42BA91",
"l. c #3FCD99",
"z. c #3FC094",
"x. c #1ACABE",
"c. c #24C0B2",
"v. c #38CAA6",
"b. c #44C18F",
"n. c #4BC38C",
"m. c #5CD185",
"M. c #42C594",
"N. c #43CA97",
"B. c #42CA98",
"V. c #44D096",
"C. c #69DC83",
"Z. c #69E187",
"A. c #69E489",
"S. c #009DC1",
"D. c #01A3C1",
"F. c #00ADC1",
"G. c #01ADCB",
"H. c #00B3C5",
"J. c #00B8C7",
"K. c #00B6C9",
"L. c #00BBCB",
"P. c #0DB9C3",
"I. c #11BDC3",
"U. c #00B7D5",
"Y. c #00BDD3",
"T. c #00BDD8",
"R. c #00C1CE",
"E. c #00C5D2",
"W. c #00CAD6",
"Q. c #00CED9",
"!. c #00D3DD",
"~. c #01D6E1",
"^. c #00DAE5",
"/. c #01DCE8",
/* pixels */
"6.0.6.6.6.6.6.3.6.2.5.6.2.2.2.2.5.2.2.2.2.2.2.,.2.:.,.:.2.:.:.:.:.:.:.@.:.:.@.@.@.;.| ;.| | | | | | | } } } { { { { { { { [ [ ) ",
"0.6.6.0.0.6.6.6.6.6.3.5.6.6.2.6.3.2.2.2.2.2.2.2.:.2.,.2.:.,.:.:.:.:.:.;.;.@.@.:.;.;.;.| @...@.| | | | |  .| | { {  .{ { { [ { [ ",
"0.0.0.6.6.6.6.6.6.6.6.6.6.2.6.3.5.5.2.2.2.2.2.2.2.:.2.,.2.:.:.,.:.:.:.:.:.:.:.@.;.@.;.;.@.@.| @.| | | } | { }  .| { { { { [ { [ ",
"0.0.0.0.0.0.6.6.6.3.3.6.6.6.6.5.3.2.2.3.2.2.2.2.2.2.:.2.,.:.,.:.:.:.:.;.;.;.:.#.;.#.@.;.@.@.| | | | } | } | } { { { { { { { { [ ",
"q.q.6.q.6.q.F.w.w.w.w.0.6.6.3.6.w.8.8.8.8.8.8.6.6.6.6.,.,.8.5.5.5.5.5.5.2.,.:.X.X.X.X.X...;.,.,.:.;.:.| | >...;.@...| { { { { { ",
"q.0.q.q.q.3._ _ ( _ g #.3.2.F.@.s g _ g g g g g g g _ 5.:.r s g f s f s s / %.j j j j l &.{ r u u u r { ) e r u e e )  .{ { { [ ",
"q.q.0.0.w.O.          r ] @ ' 6.7                     - _ s O             $ k G G G G G z t           f 6           u | { { { { ",
"q.q.q.0.D.O.      .   a ]     1 3.2.2       .           . 5 @.9 .   .     $ k G G G F G z t           f 7           u | { { { { ",
"q.w.q.q.F.O.          r o.      . 9 q.O.%             .     X r } 2       $ k G G G G G z t           f 7           u ..{ { { } ",
"w.q.q.q.F.+.      .   r }           + g w.f O                   % _ _ =   $ k G G G G G v t           f 0           u | }  .{ { ",
"w.q.q.q.F.#.          a O.              = O.8.6                     1 } r , k G G G G G v y           f 7           u ;.}  .| { ",
"w.w.w.w.F.#.          a O.                  2 6.:.<                   . 6 ..k G G G G G v y           g 7           u ;.} { | { ",
"w.w.w.w.F.#.          a O.                    . r q.] #                   * s.G G G F G v t           / 7           f | | { | { ",
"w.w.w.w.H.#.          a O.                        @ _ q.r X               $ k G G G G G v y           g 7           / | } | }  .",
"w.w.w.w.H.#.          a O.              .             : :.3.4             $ k G G G G G m y           g q           ( ;.} | } } ",
"J.w.w.w.K.#.      .   a O.          @ .                   5 6.#.-     .   $ s.G G G G G m y           ( 7           / ;.| } | } ",
"w.H.w.w.L.#.          a +.          g O.%                   X s q.g +     $ s.G G G G G b y           g 7           g ;.| | } | ",
"H.w.H.w.J.$.      .   a O.          g I.q.u o                   % ] 8.9   $ s.G G G F G m y   X       ( 7           / ;.| | |  .",
"J.w.J.w.K.<.          s +.          / B I i.7.5                     1 ,.#.0 k G G G F G m y           g q           ( ;.| | | } ",
"w.J.H.w.K.#.          a +.      .   / V G G W t...:                   . 9 7.f.G G G G G m i           ( q           ( ;.@.| | } ",
"H.H.H.F.L.<.          s #.          / V G F G D N D.) @                   * f.G G G G G m i           ( 9           ( ;.| | | | ",
"H.K.H.H.L.<.      .   a +.          / V G G G G G T M.S.q X   .           $ s.G G G G G m i           ( q           ( >.@.| @.| ",
"K.H.H.H.L.<.          s #.      .   ) V G F G G G G G Z p.4.2             $ s.G G G G G m i   .       ( 9           ( :.| @.| | ",
"J.J.K.H.L.<.          d +.          / V G G G G G G G G F ~ r. .-     .   $ s.G G G G G m i           ( q           ( :.@.@.| @.",
"J.J.J.K.Y.<.          d #.          ) V G G G G G G G G G G K c 8.p o     $ h.G G G G G m i           _ q           ) :.| ;.| | ",
"J.J.J.H.L.<.          s #.          / C.G G G G G G G G G G G G U z.7.8   $ f.G G G G G m i           ( q           ( :.;.| ;.@.",
"L.J.L.J.Y.1.          d #.          ) C.G G G G G G G G G G G G G G Q t.| 8 s.G G G G G M p           _ q           ( :.;.| | | ",
"L.L.J.J.L.1.          d #.          / C.G G G G G L G G G G G G G G G J n S.d.G G G F G M i           ( q           ( :.;.@.;.;.",
"L.L.L.J.R.1.          d #.          / C.G G G G G g.g.L G G G G G G G G G Z f.G G G G G M p           _ q           ( :.@.@.@.| ",
"L.L.L.J.E.1.      .   d $.          ) C.G G G G G n.N u.b H G G G G G G G I f.G G G F G M p           _ q           _ :.;.;.;.;.",
"R.L.L.J.E.1.          d #.          ) C.G G G G G b.T H x u.Q G G G G G G I f.G G G G G M p           _ q           _ ,.@.;.@.@.",
"R.R.R.L.E.1.          d $.      X   ) C.G G G G G b.Y G G Y -.-.U G G G G I f.G G G G G M p           _ q           ) :.;.@.;.;.",
"R.R.R.L.E.3.          d $.          ) C.G G G G G b.I G G G G Q u.x P G G I f.G G G G G M p           _ q           ) ,.;.:.@.;.",
"R.R.R.L.E.1.      .   d $.          ' C.G G G G G M.Y G G G G G F b y.E G I f.G G G F G M p           ' q   .       ' ,.@.;.;.@.",
"E.R.E.L.W.3.          d <.          ) C.G G G G G b.Y G G G G G G G L j.-.R h.G G G G G M p           _ q           _ ,.:.@.;.@.",
"E.R.R.R.W.1.          d $.      .   { C.G G G G G M.S G G G G G G G G G U =.k.G G G G G N p           ' q           _ ,.#.;.:.;.",
"E.E.E.L.W.3.      .   d $.          [ Z.G G G G G z.P.! G G G G G G G G G J Y G G G G G B ^           _ w           _ ,.;.:.;.@.",
"E.E.E.R.W.9.          h <.          ) Z.G G G G G g./ S.v.U G G G G G G G G G G G G F G B ^           ' w           ' ,.:.;.:.;.",
"E.E.E.E.W.3.          d <.          [ Z.G G G G G M.$ X ( G.m.K G G G G G G G G G G G G M ^           _ w           _ 2.:.:.;.;.",
"W.E.E.E.W.9.          h <.          [ Z.G G G G G M.&     - ..I.~ J G G G G G G G G G G M ^           ' q           _ 2.;.:.@.:.",
"W.E.E.E.!.9.          d <.          { Z.G G G G G M.&         2 7.i.! G G G G G G G G G N ^           ' q           ' 2.:.:.;.;.",
"W.W.E.E.Q.9.      .   h 1.          ' Z.G G G G G M.&           X q D.N.T G G G G G G G B ^           ' w           ' 2.:.:.:.;.",
"W.W.E.E.Q.9.          h <.          { Z.G F G G G M.&               @ ) G.B D G G G G G B ^   .       ' w   .       ' 2.:.:.:.;.",
"W.W.W.E.Q.9.          d 1.      X   { Z.G G G G G M.&   .               : >.t.W F G F G B ^           ] q           _ 2.:.:.:.;.",
"W.W.W.E.~.9.          h 1.          ' Z.G G G G G N.D.3                     4 7.i.S G G N ^           ' w           ' 5.:.:.:.;.",
"W.W.!.E.Q.0.      .   h 1.      .   { Z.G G G G G b.) H.<.=             .     o u S.n.D B ^           ] q           ' 2.:.:.:.:.",
"!.W.W.W.!.0.          h 1.          { Z.G F G G G N.& X ] L.h O                   # { r.a.s           ' w           ' 5.:.:.:.;.",
"Q.W.W.W.!.9.          h 1.          { Z.G G G G G M.&     : 1.H.9                     > 2.g           ] w           ' 5.:.:.:.:.",
"Q.Q.Q.W.!.e.          h 1.      .   { A.G G G G G B.&   .     5 w.3.<                   X -           ' w           ' 5.:.:.:.:.",
"!.Q.Q.W.!.9.          h 1.          ] A.G G G G G M.&           . d K.O.#                             ] w           ' 5.:.2.:.:.",
"Q.Q.Q.W.!.e.      .   h 9.          } A.G G G G G N.&               # O.K.a X                         ] w           ' 5.:.2.:.:.",
"!.!.Q.W.^.9.          h 1.          { A.G G G G G N.&   .         .     1 3.q.4                       ] w           ] 2.:.:.:.:.",
"!.Q.Q.W.^.$.      .   h 1.          } A.G G G G G B.6.3                   . 9 w.<.-                   ] w           ' 5.,.2.:.:.",
"!.!.!.Q.^.$.          h 9.      .   { A.G G G G G M.5 +.#.-                   O g H._ +               ] w           ' 5.,.:.:.:.",
"!.!.!.Q.^.$..         h 1.          | A.G G G G G N.&   4 3.h +                   = #.F.q .           ] w           ] 5.:.:.2.:.",
"!.!.!.Q.^.$.. .   .   h 9.          { A.G G G G G N.&     X a 3.9                     2 6.3.2         ] w   .       ] 2.2.2.:.:.",
"!.!.!.!./.$.      .   h 9.      X   } A.G G G G G B.&   .     # o.1.1               .   . w F.O.=     ] w   .       ] 5.,.,.:.:.",
"!.!.!.Q./.$.  .       h 9.          } A.G G G G G N.&             ; +._ @                   O g 0.r . ` w           ' 6.,.,.2.:.",
"~.!.!.!.!.E.$.9.1.1.$.w.L.$.1.$.$.+.H.x.V.l.l.l.N.x.O.` ` ` ` ` ` g h K.q.] o.] ] o.o.o.] ] _ g 3.D.:.2.#._ _ _ ( _ :.2.2.,.:.:.",
"~.~.!.!.!.!.^.^.^.!.^.Q.W.~.!.!.!.!.E.R.T.T.T.U.U.K.Y.E.E.E.E.R.L.Y.L.F.H.K.K.K.F.H.H.w.F.F.F.w.0.3.8.6.6.q.8.8.6.6.2.2.:.2.:.2.",
"~.~.~.!.!.Q.Q.W.W.W.W.W.W.E.E.R.E.E.R.R.R.R.R.L.L.L.K.H.H.w.J.w.w.w.w.w.w.w.q.w.q.q.q.q.0.0.6.0.6.0.6.6.2.3.2.2.2.2.2.2.2.,.:.:.",
"~.~.!.~.!.Q.!.Q.!.W.W.W.W.W.W.E.E.E.E.R.R.R.L.R.L.K.L.J.J.K.J.H.J.H.H.H.w.w.w.w.w.w.q.q.q.q.q.6.0.6.6.6.6.6.6.2.2.2.2.2.,.2.:.2.",
"~.~.~.!.!.!.!.W.W.!.Q.W.W.W.E.W.E.E.R.R.R.R.L.L.L.L.J.J.J.H.H.J.H.H.H.w.w.w.w.w.w.q.q.q.q.q.0.0.0.0.6.6.6.2.3.6.3.2.2.2.:.2.,.:.",
"~.~.~.!.!.!.!.!.!.W.W.W.W.W.W.E.E.E.R.R.R.R.R.L.L.L.L.L.J.J.K.H.J.w.w.H.H.w.w.w.q.w.q.q.q.0.q.0.6.6.6.6.6.6.5.2.2.2.2.2.2.2.:.2."
};
