/* XPM */
static char *bitcoin32[] = {
/* columns rows colors chars-per-pixel */
"32 32 147 2 ",
"   c #010102",
".  c #000208",
"X  c #000909",
"o  c #000413",
"O  c #000E10",
"+  c #000B1F",
"@  c #001315",
"#  c #00191D",
"$  c #000C23",
"%  c #001124",
"&  c #001F23",
"*  c #00132A",
"=  c #001D34",
"-  c #002125",
";  c #00242A",
":  c #04282A",
">  c #002D36",
",  c #002F38",
"<  c #043134",
"1  c #00333B",
"2  c #03393D",
"3  c #002641",
"4  c #003641",
"5  c #003B44",
"6  c #01344B",
"7  c #003E48",
"8  c #004146",
"9  c #00444B",
"0  c #004B53",
"q  c #034758",
"w  c #034C5B",
"e  c #005157",
"r  c #015459",
"t  c #004869",
"y  c #025665",
"u  c #015A65",
"i  c #095966",
"p  c #01616F",
"a  c #016472",
"s  c #016977",
"d  c #096972",
"f  c #00647D",
"g  c #016D79",
"h  c #01717D",
"j  c #127575",
"k  c #39865F",
"l  c #1D897C",
"z  c #388760",
"x  c #388C64",
"c  c #399269",
"v  c #38996F",
"b  c #2A957B",
"n  c #399D71",
"m  c #38A276",
"M  c #38A679",
"N  c #38A87A",
"B  c #41AA78",
"V  c #53C07A",
"C  c #67C76D",
"Z  c #7BD667",
"A  c #66C671",
"S  c #6ACB71",
"D  c #9FCF3B",
"F  c #9FD23D",
"G  c #A9DE3F",
"H  c #ADE13D",
"J  c #D9F11D",
"K  c #EEF80D",
"L  c #FFFF02",
"P  c #F3FB09",
"I  c #F9FF09",
"U  c #E3F515",
"Y  c #E9FE1B",
"T  c #F3FF12",
"R  c #CAEB27",
"E  c #C3EA2F",
"W  c #C9EC2B",
"Q  c #D3EF21",
"!  c #CFF12A",
"~  c #D3F022",
"^  c #DDFC27",
"/  c #CFF730",
"(  c #C1F53C",
")  c #D0FF39",
"_  c #9ED441",
"`  c #9FDB45",
"'  c #9DDD48",
"]  c #8DD756",
"[  c #87D35A",
"{  c #91DE5A",
"}  c #A4DD44",
"|  c #9FE049",
" . c #A7E146",
".. c #AAE243",
"X. c #AFE944",
"o. c #A4E84F",
"O. c #BFFA46",
"+. c #006581",
"@. c #006B83",
"#. c #006F89",
"$. c #0A7F85",
"%. c #00748C",
"&. c #01798D",
"*. c #067B83",
"=. c #006F90",
"-. c #007593",
";. c #007C94",
":. c #007D9B",
">. c #007FA5",
",. c #118788",
"<. c #008295",
"1. c #0A8495",
"2. c #01839D",
"3. c #008B9D",
"4. c #00909D",
"5. c #1B9492",
"6. c #2E9C86",
"7. c #1FA193",
"8. c #0084A2",
"9. c #008BA5",
"0. c #008EA9",
"q. c #0093A3",
"w. c #0093AB",
"e. c #009BAD",
"r. c #009CB3",
"t. c #00A0AF",
"y. c #00A3B4",
"u. c #00ACB6",
"i. c #00A4B9",
"p. c #00ABBC",
"a. c #00B2BC",
"s. c #18C0B5",
"d. c #29C7AB",
"f. c #27CAAF",
"g. c #00ADC1",
"h. c #00B3C4",
"j. c #01B8C7",
"k. c #09BEC2",
"l. c #00BCCC",
"z. c #00BCD4",
"x. c #01C1CE",
"c. c #00C4D2",
"v. c #00CAD6",
"b. c #00CDDA",
"n. c #00D3DD",
"m. c #00D7E1",
"M. c #00D9E3",
/* pixels */
"r.r.r.r.w.r.w.e.w.w.w.0.0.0.0.9.8.8.9.3.8.2.:.:.:.;.:.-.-.-.-.#.",
"y.y.y.i.i.r.r.e.i.r.r.r.e.0.0.e.w.0.0.8.>.>.8.8.8.:.:.:.:.-.-.=.",
"i.r.r.2.<.3.e.r.&.&.<.<.-.9.9.@.%.%.-.5.6.6.1.@.+.%.#.f f -.-.-.",
"i.p.q.X   1 0 q u #       X 9 5 X   + D L L z .   1 >   . +.:.-.",
"i.p.q.X   2 9   - a w X       - q : + D L L z .   1 >     +.:.-.",
"p.g.q.X   1 9       1 s 4         < t D L L z .   4 >     +.:.;.",
"p.g.q.X   2 9   X     X 0 a :       * D L L z .   4 >   . #.:.-.",
"g.h.q.X   4 9     X       @ y y @   + G L L z .   4 >   X #.:.:.",
"g.h.e.X   2 0     *.w .       : a 7 $ D L L x .   4 ,     #.:.:.",
"g.j.w.X   4 9   . v O.b ,       . 4 +.G L L x .   5 ,   X %.:.:.",
"h.j.e.X   2 9   . v L I { j *       * _ L L x .   5 <   . %.8.:.",
"h.l.e.X   5 0   . n L L L Y C y o   $ F L L x .   4 <   X %.8.:.",
"j.l.t.X   5 0   . n L L L L L ! B 6 $ G L L x .   4 >     %.8.:.",
"j.x.t.X   5 0   . n L L P P L L L X.$._ L L x .   5 1   X %.8.2.",
"l.x.t.X   5 0   . n L L } S ~ L L L W } L L c .   5 1   X &.9.:.",
"l.c.y.X   5 0   . n I L H E } ] U L Q } L I x     5 >   X -.9.2.",
"x.c.y.X   5 0   . M L L ..~ L J [ G R G L L x .   5 ,   X %.0.2.",
"x.c.y.X   8 0   . n L L  .! L L L R C } L L c .   7 1   X %.9.8.",
"x.v.u.X   8 0   . M L L ' 7.( L L L P K L L c .   5 1   X &.9.8.",
"c.b.u.X   8 0   . n L L ` * q V ^ L L L L L c .   5 1   X ;.0.8.",
"c.b.u.X   8 0   . M I L ' %   $ d Z T L L L c .   5 1   X &.0.9.",
"v.b.u.X   8 e   . M L L ' *       = l o.L L c .   7 1   . ;.q.8.",
"v.b.a.X   8 0   . M I L } -.2         6 M ) c .   7 1   X ;.0.9.",
"b.n.a.X   8 e   . M L L } ; r g &       o i $.    7 1   X ;.w.8.",
"b.n.a.X   8 r   . M I L } $   - s y X       X X   7 1   X ;.w.9.",
"b.n.a.X   8 r   . N I L | *       1 *.9           7 1   X ;.w.9.",
"n.m.u.    8 e   . N L L | f <       X 9 h >       8 1   X <.w.9.",
"n.m.u.    8 r   . N L L ' * 2 r -       @ u p #   7 1   X ;.w.9.",
"n.M.u.    9 r     N L L  .%   @ 0 0 X       ; s 7 9 1   . <.w.9.",
"m.n.v.a.u.a.a.u.t.x.f.d.s.e.q.3.<.u.e.3.4.9.<.<.i.w.3.<.;.9.w.w.",
"M.n.n.m.n.n.n.b.b.c.z.z.l.l.z.l.l.g.h.h.g.g.p.p.r.r.r.r.r.w.0.9.",
"M.n.n.b.v.v.v.c.x.x.x.x.l.j.j.h.g.g.g.u.p.i.r.y.r.r.r.w.w.w.w.0."
};
